<svg xmlns="http://www.w3.org/2000/svg" width="72.448" height="57.958" viewBox="0 0 72.448 57.958">
  <path id="Icon_awesome-crown" data-name="Icon awesome-crown" d="M59.77,50.714H12.678a1.817,1.817,0,0,0-1.811,1.811v3.622a1.817,1.817,0,0,0,1.811,1.811H59.77a1.817,1.817,0,0,0,1.811-1.811V52.525A1.817,1.817,0,0,0,59.77,50.714ZM67.015,14.49a5.435,5.435,0,0,0-5.434,5.434,5.323,5.323,0,0,0,.5,2.241l-8.2,4.913a3.618,3.618,0,0,1-5-1.313L39.654,9.622a5.434,5.434,0,1,0-6.86,0L23.568,25.764a3.62,3.62,0,0,1-5,1.313L10.38,22.165a5.432,5.432,0,1,0-4.947,3.192,5.549,5.549,0,0,0,.872-.091L14.49,47.091H57.959l8.184-21.825a5.549,5.549,0,0,0,.872.091,5.434,5.434,0,0,0,0-10.867Z" fill="#f9cc41"/>
</svg>
