<svg xmlns="http://www.w3.org/2000/svg" width="72" height="45.818" viewBox="0 0 72 45.818">
  <path id="Icon_material-people" data-name="Icon material-people" d="M50.591,27.136a9.818,9.818,0,1,0-9.818-9.818A9.777,9.777,0,0,0,50.591,27.136Zm-26.182,0a9.818,9.818,0,1,0-9.818-9.818A9.777,9.777,0,0,0,24.409,27.136Zm0,6.545C16.784,33.682,1.5,37.511,1.5,45.136v8.182H47.318V45.136C47.318,37.511,32.035,33.682,24.409,33.682Zm26.182,0c-.949,0-2.029.065-3.175.164,3.8,2.749,6.447,6.447,6.447,11.291v8.182H73.5V45.136C73.5,37.511,58.216,33.682,50.591,33.682Z" transform="translate(-1.5 -7.5)" fill="#f9cc41"/>
</svg>
