<svg xmlns="http://www.w3.org/2000/svg" width="72" height="72" viewBox="0 0 72 72">
  <path id="Icon_awesome-smile" data-name="Icon awesome-smile" d="M36,.562a36,36,0,1,0,36,36A35.994,35.994,0,0,0,36,.562ZM47.613,24.95a4.645,4.645,0,1,1-4.645,4.645A4.64,4.64,0,0,1,47.613,24.95Zm-23.226,0a4.645,4.645,0,1,1-4.645,4.645A4.64,4.64,0,0,1,24.387,24.95ZM52.665,49.656a21.684,21.684,0,0,1-33.329,0,2.324,2.324,0,0,1,3.571-2.976,17.056,17.056,0,0,0,26.187,0C51.039,44.329,54.624,47.29,52.665,49.656Z" transform="translate(0 -0.563)" fill="#f9cc41"/>
</svg>
